<!-- Save this as icon.svg in your project root -->
<svg xmlns="http://www.w3.org/2000/svg" viewBox="0 0 512 512">
  <defs>
    <linearGradient id="bg" x1="0" y1="0" x2="512" y2="512" gradientUnits="userSpaceOnUse">
      <stop offset="0%"   stop-color="#1a1040"/>
      <stop offset="50%"  stop-color="#2d1b69"/>
      <stop offset="100%" stop-color="#11052c"/>
    </linearGradient>
    <linearGradient id="ring" x1="0" y1="0" x2="512" y2="512" gradientUnits="userSpaceOnUse">
      <stop offset="0%"   stop-color="#6c63ff"/>
      <stop offset="100%" stop-color="#ff6584"/>
    </linearGradient>
  </defs>
  <rect width="512" height="512" rx="120" fill="url(#bg)"/>
  <rect width="512" height="512" rx="120" fill="none" stroke="url(#ring)" stroke-width="12" opacity="0.7"/>
  <circle cx="256" cy="256" r="160" fill="none" stroke="url(#ring)" stroke-width="18"/>
  <circle cx="256" cy="256" r="140" fill="rgba(108,99,255,0.08)"/>
  <line x1="256" y1="96"  x2="256" y2="130" stroke="#6c63ff" stroke-width="16" stroke-linecap="round"/>
  <line x1="256" y1="382" x2="256" y2="416" stroke="#6c63ff" stroke-width="16" stroke-linecap="round"/>
  <line x1="96"  y1="256" x2="130" y2="256" stroke="#6c63ff" stroke-width="16" stroke-linecap="round"/>
  <line x1="382" y1="256" x2="416" y2="256" stroke="#6c63ff" stroke-width="16" stroke-linecap="round"/>
  <line x1="256" y1="256" x2="180" y2="160" stroke="#43e97b" stroke-width="20" stroke-linecap="round"/>
  <line x1="256" y1="256" x2="320" y2="212" stroke="#6c63ff" stroke-width="22" stroke-linecap="round"/>
  <circle cx="256" cy="256" r="24" fill="#ff6584"/>
  <circle cx="256" cy="256" r="12" fill="white"/>
  <path d="M370 165 L336 224 L358 224 L324 320 L375 237 L353 237 Z" fill="#f6c90e" opacity="0.9"/>
</svg>
